<svg width="1152" height="600" viewBox="0 0 1152 600" fill="none" xmlns="http://www.w3.org/2000/svg">
<rect width="1151.61" height="600" fill="white"/>
<ellipse cx="575.418" cy="302.271" rx="353.999" ry="113.941" transform="rotate(-12.7523 575.418 302.271)" fill="black" stroke="white" stroke-width="8"/>
<path d="M559.128 320.132C550.414 322.023 540.883 324.203 531.351 326.383C531.35 326.383 531.349 326.383 531.348 326.383L531.346 326.384L531.341 326.385C516.226 329.841 501.11 333.298 489.273 335.6L489.272 335.6C483.495 336.718 479.343 335.361 476.63 333.7C475.278 332.873 474.289 331.974 473.637 331.279C473.542 331.178 473.455 331.082 473.374 330.99C473.338 331.144 473.296 331.311 473.247 331.49C472.971 332.483 472.467 333.837 471.551 335.298C469.711 338.23 466.234 341.553 459.714 343.262C435.476 349.617 414.71 355.164 400.004 359.123C398.217 359.604 396.52 360.061 394.917 360.494C396.773 360.089 398.75 359.657 400.838 359.199C415.979 355.882 436.998 351.223 460.511 345.852L460.622 346.339L460.511 345.852C467.59 344.235 472.251 345.36 475.207 347.029C476.836 347.949 477.927 349.024 478.611 349.863C478.695 348.982 478.933 347.834 479.528 346.586C480.832 343.848 483.805 340.72 490.365 338.851M559.128 320.132L531.912 327.496L531.909 327.496L531.905 327.497C516.645 331.603 501.38 335.709 490.365 338.851M559.128 320.132C550.721 322.435 541.318 324.965 531.913 327.495L559.128 320.132ZM490.365 338.851L490.502 339.332L490.365 338.851C490.365 338.851 490.365 338.851 490.365 338.851ZM868.416 220.461L868.84 220.195L868.417 220.461C870.887 224.402 874.651 232.666 872.902 242.338C871.993 247.35 869.672 252.383 862.397 260.802C851.609 273.28 837.74 284.134 817.343 295.561C801.803 304.272 789.104 309.593 786.46 310.698C746.953 327.126 707.538 340.449 677.998 349.665C663.229 354.273 650.929 357.854 642.323 360.283C638.019 361.498 634.639 362.424 632.336 363.047C631.184 363.358 630.301 363.594 629.706 363.751C629.409 363.83 629.183 363.889 629.033 363.929L628.862 363.973L628.82 363.984L628.809 363.987L628.806 363.988C628.806 363.988 628.806 363.988 628.931 364.472L628.806 363.988C606.621 369.755 585.549 374.429 570.023 377.661C565.709 378.559 561.822 379.346 558.46 380.014C564.571 378.338 572.534 376.097 581.969 373.316C604.947 366.541 636.652 356.557 671.559 343.724C695.393 334.961 719.629 323.465 768.009 300.516L768.034 300.504L768.035 300.503L768.049 300.497L768.051 300.496L767.836 300.044C768.051 300.496 768.051 300.496 768.051 300.496L768.052 300.495L768.057 300.493L768.073 300.485L768.138 300.454C768.195 300.427 768.279 300.386 768.39 300.332C768.612 300.223 768.94 300.061 769.366 299.845C770.218 299.414 771.464 298.769 773.039 297.914C776.189 296.205 780.658 293.654 785.942 290.287C796.507 283.554 810.338 273.552 823.386 260.478C828.983 254.871 836.376 246.317 836.872 234.884C836.955 233.087 837.117 229.313 835.63 225.34C833.914 220.753 830.5 216.948 826.388 213.826C822.276 210.703 817.438 208.242 812.828 206.349C808.216 204.456 803.817 203.125 800.571 202.267C799.745 202.049 798.992 201.861 798.33 201.702C799.88 201.572 801.947 201.424 804.403 201.311C810.04 201.052 817.719 200.973 825.897 201.696C834.079 202.42 842.738 203.944 850.344 206.88C857.952 209.816 864.466 214.147 868.416 220.461ZM383.804 300.745L383.803 300.745L383.788 300.752L383.787 300.753L383.782 300.755L383.766 300.763L383.701 300.794C383.644 300.821 383.56 300.862 383.449 300.916C383.227 301.025 382.899 301.187 382.473 301.403C381.62 301.834 380.375 302.479 378.8 303.334C375.65 305.043 371.181 307.594 365.897 310.961C355.331 317.694 341.501 327.696 328.453 340.77C322.856 346.377 315.462 354.931 314.967 366.364C314.883 368.162 314.722 371.935 316.209 375.908C317.925 380.495 321.339 384.3 325.45 387.422C329.563 390.545 334.401 393.006 339.011 394.899C343.623 396.792 348.022 398.123 351.267 398.981C352.119 399.206 352.892 399.398 353.568 399.56C352.011 399.691 349.919 399.841 347.426 399.955C341.789 400.214 334.11 400.291 325.933 399.566C317.752 398.84 309.093 397.314 301.489 394.376C293.882 391.438 287.371 387.103 283.423 380.787L283.422 380.787C280.952 376.846 277.188 368.582 278.937 358.91C279.846 353.897 282.167 348.865 289.442 340.446C300.23 327.968 314.099 317.114 334.495 305.687L334.496 305.686C350.038 296.975 362.738 291.653 365.379 290.549C404.886 274.122 444.301 260.799 473.841 251.583C488.61 246.975 500.91 243.393 509.516 240.965C513.819 239.75 517.2 238.824 519.503 238.201C520.655 237.89 521.538 237.654 522.133 237.497C522.43 237.418 522.655 237.359 522.806 237.319L522.977 237.275L523.019 237.263L523.03 237.261L523.033 237.26C523.033 237.26 523.033 237.26 523.026 237.231C523.014 237.186 522.984 237.071 522.908 236.776L523.033 237.26C545.218 231.492 566.29 226.819 581.816 223.587C586.13 222.689 590.016 221.902 593.379 221.234C587.268 222.909 579.304 225.15 569.87 227.932C546.892 234.707 515.187 244.69 480.28 257.524C456.446 266.287 432.212 277.782 383.834 300.73L383.804 300.745ZM555.186 279.868C555.322 280.027 555.478 280.202 555.653 280.389C556.448 281.236 557.653 282.333 559.302 283.342C562.608 285.366 567.671 287.023 574.721 285.652C589.286 282.825 607.893 278.567 626.489 274.312L626.493 274.311L626.495 274.311L626.496 274.311L626.5 274.31L626.5 274.31L626.502 274.309L626.503 274.309C639.574 271.318 652.639 268.329 664.299 265.836C653.148 268.907 640.283 272.369 627.4 275.835L627.53 276.317L627.4 275.835L627.396 275.836L627.392 275.837C608.565 280.902 589.702 285.977 576.113 289.855C568.094 292.144 564.476 295.962 562.893 299.286C562.106 300.938 561.832 302.446 561.756 303.545C560.95 302.51 559.599 301.114 557.515 299.922C553.921 297.868 548.211 296.456 539.49 298.45C510.652 305.037 484.873 310.75 466.302 314.815C462.095 315.737 458.259 316.573 454.84 317.316C457.955 316.474 461.432 315.536 465.239 314.511C483.275 309.656 508.743 302.851 538.466 295.053C546.43 292.966 550.671 288.908 552.912 285.335C554.03 283.555 554.645 281.904 554.981 280.695C555.065 280.389 555.133 280.112 555.186 279.868ZM687.492 298.611C686.808 297.771 685.716 296.697 684.088 295.777C681.132 294.108 676.47 292.983 669.392 294.599L669.503 295.087L669.392 294.599C645.879 299.971 624.86 304.63 609.719 307.947C607.631 308.405 605.654 308.837 603.798 309.241C605.401 308.809 607.098 308.351 608.885 307.87C623.591 303.912 644.357 298.365 668.595 292.01C675.115 290.301 678.592 286.978 680.432 284.045C681.348 282.585 681.852 281.231 682.127 280.238C682.177 280.059 682.219 279.892 682.255 279.738C682.336 279.83 682.423 279.926 682.518 280.027C683.17 280.722 684.159 281.62 685.511 282.448C688.224 284.109 692.376 285.466 698.153 284.348L698.154 284.348C709.99 282.046 725.105 278.589 740.219 275.133L740.227 275.131C749.76 272.951 759.294 270.771 768.009 268.879C759.601 271.183 750.197 273.713 740.792 276.244L740.79 276.244C725.529 280.35 710.262 284.457 699.246 287.599C692.686 289.468 689.712 292.595 688.408 295.334C687.814 296.582 687.576 297.73 687.492 298.611Z" fill="white" stroke="white"/>
</svg>
